DataType=double
version=3
OpenSimVersion=4.5
endheader
time	ground_force_2_vx	ground_force_2_vy	ground_force_2_vz	ground_force_2_px	ground_force_2_py	ground_force_2_pz	ground_moment_2_mx	ground_moment_2_my	ground_moment_2_mz	ground_force_1_vx	ground_force_1_vy	ground_force_1_vz	ground_force_1_px	ground_force_1_py	ground_force_1_pz	ground_moment_1_mx	ground_moment_1_my	ground_moment_1_mz
3.02	0.2478947408491887	-1.351238477379468	-0.1561091630192504	0.6725426755346924	0.01038340430110678	0.5571399796699998	0	-0.002070876287222051	0	-53.17000369357343	649.3641536728958	49.62192037321825	0.855777184830054	0.01038340430110678	0.399329897979025	0	3.197416681644014	0
3.025	0.3069369310100596	-0.9966454218186414	-0.1363924076736787	0.6834167940039647	0.01038340430110678	0.5572897023733542	0	-0.002224411440673257	0	-51.13152858309311	644.5261118144227	48.38575548390824	0.852329778411967	0.01038340430110678	0.3994405277996821	0	3.017661094358552	0
3.03	0.346698605959034	-0.7079108006522574	-0.1169160953993966	0.6944208579935527	0.01038340430110678	0.5574769566107572	0	-0.002314025646027507	0	-49.02657661995028	640.3150172222495	47.20899254209994	0.8486662656565522	0.01038340430110678	0.3995896604190632	0	2.842700274065564	0
3.035	0.3701754727103461	-0.4777304479855502	-0.09823949833543821	0.7055495074160301	0.01038340430110678	0.5577070098660638	0	-0.002349295964408193	0	-46.86459656676602	636.7068544042924	46.09237715843992	0.8447915479361335	0.01038340430110678	0.3997732476029819	0	2.673286435522532	0
3.04	0.3801608226244406	-0.2986413328329718	-0.08076475983903464	0.7167981991872444	0.01038340430110678	0.5579851167210903	0	-0.002338892887108229	0	-44.65528257871559	633.6705696380009	45.03498391576244	0.8407134975864996	0.01038340430110678	0.3999871479114959	0	2.509854286747206	0
3.045	0.3792098707104401	-0.1633070649046431	-0.06476129374879669	0.7281629531538187	0.01038340430110678	0.5583163774162464	0	-0.002290620301541396	0	-42.40796360420959	631.1704431904445	44.0348723570876	0.8364424171833631	0.01038340430110678	0.4002272108436589	0	2.352568429625677	0
3.05	0.3696202889856757	-0.06473400309653243	-0.05038879821453435	0.739640068391874	0.01038340430110678	0.5587055814368412	0	-0.002211496211359576	0	-40.13106106507408	629.168238383282	43.08969337496495	0.8319904832647929	0.01038340430110678	0.4004893435104563	0	2.201372463840595	0
3.055	0.3534255961824524	0.003573086096366751	-0.03771845267751139	0.7512258149508714	0.01038340430110678	0.5591570406551724	0	-0.002107854012625504	0	-37.83163276285258	627.6250561078598	42.19720747853616	0.8273711996693411	0.01038340430110678	0.4007695619689857	0	2.056037293944831	0
3.06	0.3323984106039246	0.04750719452795238	-0.0267520156303469	0.7629161072836144	0.01038340430110678	0.5596744171290161	0	-0.001985447530986062	0	-35.51501485077578	626.5028448454666	41.35568593953577	0.8225988805847937	0.01038340430110678	0.4010640304492794	0	1.916206742005064	0
3.065	0.3080609410130695	0.07229891741786787	-0.01743866599473343	0.7747061666521842	0.01038340430110678	0.5602605511689579	0	-0.001849546722754114	0	-33.1845690487752	625.7655303985794	40.56417510649587	0.8176881805918702	0.01038340430110678	0.401369092644971	0	1.781438939882197	0
3.07	0.2817004686072488	0.08249240676155978	-0.009689534848924097	0.7865901806965356	0.01038340430110678	0.5609172957159676	0	-0.001705014713713704	0	-30.8415406169121	625.3797556201326	39.82261670348795	0.8126536841906871	0.01038340430110678	0.401681298950992	0	1.65124249756477	0
3.075	0.2543879499826058	0.08195048139589289	-0.003389959195351011	0.7985609690658225	0.01038340430110678	0.5616453633825383	0	-0.001556360479386426	0	-28.4850330219132	625.3152565078799	39.13183171312288	0.807509560544198	0.01038340430110678	0.4019974320383106	0	1.525107104834169	0
3.08	0.2269982379256303	0.07388256556555461	0.001590441915137575	0.8106096645129091	0.01038340430110678	0.562444192664098	0	-0.001407764842102727	0	-26.11210531740601	625.5449339781308	38.49338930333142	0.8022692830056211	0.01038340430110678	0.4023145312364326	0	1.402528795657509	0
3.085	0.2002307702629791	0.06088971693503709	0.005389712114196143	0.8227254191122804	0.01038340430110678	0.5633118397771629	0	-0.001263080732898381	0	-23.71799475473219	626.0447006943168	37.90939248116875	0.796945409116131	0.01038340430110678	0.4026299145859304	0	1.283030432376542	0
3.09	0.1746299116337484	0.04502154108951117	0.008147318791490221	0.8348951452550236	0.01038340430110678	0.5642449022826318	0	-0.001125812006707805	0	-21.29645720639541	626.7931860703056	37.38221669494449	0.7915494151278051	0.01038340430110678	0.4029411965727677	0	1.166178029969798	0
3.095	0.1506044260984964	0.02784032621082133	0.009999491904689961	0.8471033007804222	0.01038340430110678	0.5652384800687456	0	-0.0009990778189328253	0	-18.84020355505923	627.7713714619858	36.91423562335576	0.786091578949357	0.01038340430110678	0.4032462996181229	0	1.051593421638723	0
3.1	0.128445777465906	0.01048836445318102	0.01107589249684615	0.8593317270067996	0.01038340430110678	0.5662861783723167	0	-0.0008855703460397824	0	-16.34139843165964	628.9622073976757	36.50756162130138	0.7805809062654753	0.01038340430110678	0.4035434581681305	0	0.9389636033103554	0
3.105	0.1083450912591601	-0.006244825175258484	0.01149738005794099	0.8715595475173903	0.01038340430110678	0.5673801562997339	0	-0.0007875121665115448	0	-13.7921832592932	630.3502428920278	36.16382002964035	0.7750250961955505	0.01038340430110678	0.4038312152573018	0	0.8280469966441191	0
3.11	0.0904086901806771	-0.02185787218991209	0.01137467992903929	0.8837631343434121	0.01038340430110678	0.5685112227838104	0	-0.0007066170550704409	0	-11.18518661078978	631.9212788297241	35.88396906219161	0.7694305446204645	0.01038340430110678	0.4041084123015241	0	0.7186768689028717	0
3.115	0.07467215916042313	-0.03607728690730028	0.01080778602912602	0.8959161466814862	0.01038340430110678	0.5696689801172128	0	-0.0006440554896550155	0	-8.513987873547427	633.6620455155551	35.66817088901852	0.7638023844724973	0.01038340430110678	0.4043741734027312	0	0.6107622207243086	0
3.12	0.06111292035001359	-0.04880264920717536	0.009885964088622856	0.9079896455155102	0.01038340430110678	0.570842013203944	0	-0.0006004242950871375	0	-5.773503802453805	635.5598988696679	35.51571482200153	0.7581445625506967	0.01038340430110678	0.4046278855903518	0	0.5042865601461378	0
3.125	0.04966131055269063	-0.06005779105203146	0.008688244551173341	0.9199522855287566	0.01038340430110678	0.5720181205600768	0	-0.0005757185707941925	0	-2.960271743303121	637.6025289350382	35.42499003868048	0.7524599519374927	0.01038340430110678	0.4048691762810407	0	0.399305080608373	0
3.13	0.04021016013946088	-0.06994805330532472	0.007284312251755409	0.9317705835495533	0.01038340430110678	0.5731845809901251	0	-0.0005693033322538288	0	-0.07260822248803678	639.7776764516027	35.39350277160202	0.7467504981284003	0.01038340430110678	0.4050978889478055	0	0.2959408033119494	0
3.135	0.03262287949891096	-0.07862335240099583	0.005735712679157956	0.9434092605456554	0.01038340430110678	0.5743284478993936	0	-0.0005798821366204965	0	2.889372513205714	642.0728568185712	35.41793075350761	0.7410173957527403	0.01038340430110678	0.4053140576674763	0	0.1943801668912883	0
3.14	0.02674007082543994	-0.0862465596230777	0.004097303311796807	0.9548316519523058	0.01038340430110678	0.5754368615157711	0	-0.0006054602985126334	0	5.923887461735451	644.4750949621175	35.49420561597057	0.7352612913712152	0.01038340430110678	0.4055178809381113	0	0.09486832939362277	0
3.145	0.02238470196125508	-0.09296656955621074	0.002418884466981908	0.966000178980269	0.01038340430110678	0.5764973680221359	0	-0.0006433009948096924	0	9.027757548902013	646.9706786613705	35.61761300224673	0.7294825063737868	0.01038340430110678	0.4057096949910186	0	-0.002295812306676415	0
3.15	0.01936590677110406	-0.09889540752493531	0.0007469485206659243	0.9768768715984953	0.01038340430110678	0.5774982338596338	0	-0.0006898735119220956	0	12.19680624728811	649.544940586642	35.78290176961333	0.7236812726348975	0.01038340430110678	0.4058899468468369	0	-0.09676507657587508	0
3.155	0.01748151289533517	-0.1040887857835742	-0.0008735097848600049	0.9874239322130951	0.01038340430110678	0.5784287433373115	0	-0.0007407940605332064	0	15.42635075508523	652.1820796089889	35.98439680029142	0.7178579726912083	0.01038340430110678	0.4060591676376656	0	-0.1881502515358506	0
3.16	0.01651943850647797	-0.1085296396112767	-0.002397175615017844	0.9976043277535317	0.01038340430110678	0.5792794682163456	0	-0.0007907609481611066	0	18.71173563649366	654.8650301402464	36.21611201548599	0.7120133764322742	0.01038340430110678	0.4062179471560461	0	-0.2760275330847396	0
3.165	0.01625813978841339	-0.1121143296910532	-0.003776640366860207	1.007382396996393	0.01038340430110678	0.5800424991175391	0	-0.0008334874649040813	0	22.04884449370685	657.5753855108208	36.47186039032257	0.7061488681081669	0.01038340430110678	0.406366910989018	0	-0.3599474358329832	0
3.17	0.01646632907536283	-0.1146413727865365	-0.004960724936395877	1.016724459550781	0.01038340430110678	0.5807116303649196	0	-0.0008616375684525612	0	25.43452024954984	660.2933777713222	36.74535772868121	0.7002666604481949	0.01038340430110678	0.4065067018173277	0	-0.4394452780214931	0
3.175	0.01690222121233642	-0.1158027555381409	-0.00589295898863007	1.025599413012311	0.01038340430110678	0.5812824921113433	0	-0.0008667712187930832	0	28.8668316790223	662.9979117498156	37.03031833408693	0.6943699957152076	0.01038340430110678	0.4066379664832216	0	-0.5140531868985042	0
3.18	0.01731260204943386	-0.1151780881734226	-0.006510285321109421	1.033979305347284	0.01038340430110678	0.5817526261375559	0	-0.0008393078772516716	0	32.34513869403471	665.6666478485496	37.32054345484701	0.6884633356995581	0.01038340430110678	0.4067613501698772	0	-0.5833134752085213	0
3.185	0.01743204579464042	-0.112232053805883	-0.006742070862205907	1.04183987054227	0.01038340430110678	0.5821215043903428	0	-0.0007685182220914799	0	35.86992655287609	668.2761288909046	37.61000641946555	0.6825525437352556	0.01038340430110678	0.4068774983606295	0	-0.6467931568799864	0
3.19	0.01698263589147864	-0.106315796182173	-0.00650951968772695	1.049161016860259	0.01038340430110678	0.582390491934824	0	-0.0006425555962015772	0	39.44239784592383	670.8019521835704	37.8929408187048	0.6766450618707729	0.01038340430110678	0.406987066158637	0	-0.7040992852669948	0
3.195	0.01567456678097745	-0.09667305932794079	-0.005725597737752608	1.055927258567383	0.01038340430110678	0.582562758356525	0	-0.0004485401462382965	0	43.06383095531972	673.218997116662	38.16393934155905	0.6707500855067869	0.01038340430110678	0.4070907332242131	0	-0.7548947192414664	0
3.2	0.01320802095336049	-0.08245204199397449	-0.004295592445078711	1.062128083596828	0.01038340430110678	0.5826431436037786	0	-0.0001727100616751021	0	46.73473524846935	675.501727799965	38.41807035600924	0.6648787363138048	0.01038340430110678	0.4071892213103721	0	-0.7989138501817189	0
3.205	0.009276726389269463	-0.06272405284420302	-0.002118441690978301	1.067758251149976	0.01038340430110678	0.5826379856952743	0	0.0001993442339020268	0	50.45385719141999	677.6245956698092	38.65101639037152	0.6590442322474452	0.01038340430110678	0.4072833104474634	0	-0.8359777420675772	0
